<svg width="2000" height="2000" viewBox="0 0 2000 2000" fill="none" xmlns="http://www.w3.org/2000/svg">
<g clip-path="url(#clip0_419_276)">
<path d="M1269.79 1418.96H773.63C704.33 1418.96 650.82 1358.03 659.76 1289.29L667.18 1232.17C692.5 1266.42 733.17 1288.67 778.94 1288.67C855.53 1288.67 917.86 1226.34 917.86 1149.75C917.86 1073.16 855.54 1010.83 778.94 1010.83C773.58 1010.83 768.29 1011.16 763.09 1011.74C780.96 996.05 792.27 973.06 792.27 947.48C792.27 903.16 758.42 866.62 715.21 862.33L721.74 812.01C729.16 754.75 777.91 711.94 835.61 711.94H891.24C886.64 728.5 883.06 745.04 880.77 760.55C870.83 769.44 864.9 782.29 864.9 796.36C864.9 822.9 886.5 844.5 913.04 844.5C939.58 844.5 961.18 822.9 961.18 796.36C961.18 785.91 957.78 775.89 951.73 767.75C954.53 750.37 959.44 730.7 965.67 711.94H1075.58C1082.71 730.79 1088.36 750.26 1091.56 767.84C1085.56 776 1082.16 785.95 1082.16 796.36C1082.16 822.9 1103.76 844.5 1130.3 844.5C1156.84 844.5 1178.47 822.9 1178.47 796.36C1178.47 782.18 1172.45 769.22 1162.29 760.31C1159.84 746.73 1155.89 729.97 1150.35 711.94H1207.76C1265.46 711.94 1314.21 754.75 1321.63 812.01L1383.62 1289.29C1392.56 1358.04 1339.03 1418.96 1269.75 1418.96H1269.79Z" fill="#F7931E"/>
<path d="M1138.27 775.89C1129.72 708.12 1080.71 581 1017.87 581C987.68 581 958.11 611.4 934.61 666.6C919.89 701.17 908.75 742.73 905.27 775.85C896.8 779.04 891.11 787.09 891.11 796.36C891.11 808.46 900.97 818.31 913.09 818.31C925.21 818.31 935.04 808.46 935.04 796.36C935.04 788.4 930.82 781.24 924.07 777.35C927.35 746.58 938.17 706.39 951.97 673.99C961.46 651.7 986.88 599.87 1017.87 599.87C1062.1 599.87 1111.07 707.59 1119.55 777.26C1112.77 781.11 1108.4 788.43 1108.4 796.35C1108.4 808.45 1118.25 818.3 1130.35 818.3C1142.45 818.3 1152.33 808.45 1152.33 796.35C1152.33 787.15 1146.68 779.1 1138.28 775.88L1138.27 775.89Z" fill="#231F20"/>
<path d="M778.95 1259.75C839.713 1259.75 888.97 1210.49 888.97 1149.73C888.97 1088.97 839.713 1039.71 778.95 1039.71C718.188 1039.71 668.93 1088.97 668.93 1149.73C668.93 1210.49 718.188 1259.75 778.95 1259.75Z" fill="#5093F7"/>
<path d="M562.79 1099.72C602.991 1099.72 635.58 1067.13 635.58 1026.93C635.58 986.729 602.991 954.14 562.79 954.14C522.589 954.14 490 986.729 490 1026.93C490 1067.13 522.589 1099.72 562.79 1099.72Z" fill="#F75892"/> 
<path d="M761.804 960.842C769.176 930.419 750.489 899.781 720.065 892.409C689.642 885.038 659.004 903.725 651.632 934.148C644.261 964.571 662.948 995.21 693.371 1002.58C723.794 1009.95 754.433 991.266 761.804 960.842Z" fill="#75B344"/>
<path d="M664.311 816.322C682.716 811.497 693.724 792.666 688.899 774.262C684.074 755.858 665.243 744.849 646.839 749.674C628.435 754.499 617.426 773.33 622.251 791.734C627.076 810.139 645.907 821.147 664.311 816.322Z" fill="#E1397D"/>
<path d="M582.24 926.35C598.814 926.35 612.25 912.914 612.25 896.34C612.25 879.766 598.814 866.33 582.24 866.33C565.666 866.33 552.23 879.766 552.23 896.34C552.23 912.914 565.666 926.35 582.24 926.35Z" fill="#694F8F"/>
</g>
<defs>
<clipPath id="clip0_419_276">
<rect width="2000" height="2000" fill="white"/>
</clipPath>
</defs>
</svg>
