<svg width="895" height="838" viewBox="0 0 895 838" fill="none" xmlns="http://www.w3.org/2000/svg">
<path d="M779.79 837.96H283.63C214.33 837.96 160.82 777.03 169.76 708.29L177.18 651.17C202.5 685.42 243.17 707.67 288.94 707.67C365.53 707.67 427.86 645.34 427.86 568.75C427.86 492.16 365.54 429.83 288.94 429.83C283.58 429.83 278.29 430.16 273.09 430.74C290.96 415.05 302.27 392.06 302.27 366.48C302.27 322.16 268.42 285.62 225.21 281.33L231.74 231.01C239.16 173.75 287.91 130.94 345.61 130.94H401.24C396.64 147.5 393.06 164.04 390.77 179.55C380.83 188.44 374.9 201.29 374.9 215.36C374.9 241.9 396.5 263.5 423.04 263.5C449.58 263.5 471.18 241.9 471.18 215.36C471.18 204.91 467.78 194.89 461.73 186.75C464.53 169.37 469.44 149.7 475.67 130.94H585.58C592.71 149.79 598.36 169.26 601.56 186.84C595.56 195 592.16 204.95 592.16 215.36C592.16 241.9 613.76 263.5 640.3 263.5C666.84 263.5 688.47 241.9 688.47 215.36C688.47 201.18 682.45 188.22 672.29 179.31C669.84 165.73 665.89 148.97 660.35 130.94H717.76C775.46 130.94 824.21 173.75 831.63 231.01L893.62 708.29C902.56 777.04 849.03 837.96 779.75 837.96H779.79Z" fill="#F7931E"/>
<path d="M648.27 194.89C639.72 127.12 590.71 0 527.87 0C497.68 0 468.11 30.4 444.61 85.6C429.89 120.17 418.75 161.73 415.27 194.85C406.8 198.04 401.11 206.09 401.11 215.36C401.11 227.46 410.97 237.31 423.09 237.31C435.21 237.31 445.04 227.46 445.04 215.36C445.04 207.4 440.82 200.24 434.07 196.35C437.35 165.58 448.17 125.39 461.97 92.99C471.46 70.7 496.88 18.87 527.87 18.87C572.1 18.87 621.07 126.59 629.55 196.26C622.77 200.11 618.4 207.43 618.4 215.35C618.4 227.45 628.25 237.3 640.35 237.3C652.45 237.3 662.33 227.45 662.33 215.35C662.33 206.15 656.68 198.1 648.28 194.88L648.27 194.89Z" fill="#231F20"/>
<path d="M288.95 678.75C349.713 678.75 398.97 629.492 398.97 568.73C398.97 507.968 349.713 458.71 288.95 458.71C228.188 458.71 178.93 507.968 178.93 568.73C178.93 629.492 228.188 678.75 288.95 678.75Z" fill="#5093F7"/>
<path d="M72.79 518.72C112.991 518.72 145.58 486.131 145.58 445.93C145.58 405.729 112.991 373.14 72.79 373.14C32.5892 373.14 0 405.729 0 445.93C0 486.131 32.5892 518.72 72.79 518.72Z" fill="#F75892"/>
<path d="M271.804 379.842C279.176 349.419 260.489 318.781 230.065 311.409C199.642 304.038 169.004 322.725 161.632 353.148C154.261 383.571 172.948 414.21 203.371 421.581C233.794 428.953 264.433 410.266 271.804 379.842Z" fill="#75B344"/>
<path d="M174.311 235.322C192.716 230.497 203.724 211.666 198.899 193.262C194.074 174.858 175.243 163.849 156.839 168.674C138.435 173.499 127.426 192.33 132.251 210.734C137.076 229.139 155.907 240.147 174.311 235.322Z" fill="#E1397D"/>
<path d="M92.2399 345.35C108.814 345.35 122.25 331.914 122.25 315.34C122.25 298.766 108.814 285.33 92.2399 285.33C75.6659 285.33 62.23 298.766 62.23 315.34C62.23 331.914 75.6659 345.35 92.2399 345.35Z" fill="#694F8F"/>
</svg>
