<svg
xmlns="http://www.w3.org/2000/svg"
width="16"
height="16"
fill="gray"
viewBox="0 0 16 16"
>
<path
fillRule="evenodd"
d="M8,2 C11.3137085,2 14,4.6862915 14,8 C14,11.3137085 11.3137085,14 8,14 C4.6862915,14 2,11.3137085 2,8 C2,4.6862915 4.6862915,2 8,2 Z M10.5924919,5.27303573 C10.4094355,5.1521972 10.1606887,5.17236516 9.99956233,5.33352414 L9.99956233,5.33352414 L8.00023568,7.33325477 L6.00047136,5.33349045 C5.81628967,5.14930876 5.51767215,5.14930876 5.33349045,5.33349045 L5.33349045,5.33349045 L5.27301564,5.40754038 C5.1522078,5.59059052 5.17239885,5.83931011 5.33355782,6.00040399 L5.33355782,6.00040399 L7.33372614,7.99976432 L5.33352414,9.99956232 L5.33352414,9.99956232 L5.27306194,10.0735738 C5.15220491,10.2566181 5.17234775,10.5053668 5.33349045,10.6665095 L5.33349045,10.6665095 L5.40750807,10.7269643 C5.5905645,10.8478028 5.83931125,10.8276348 6.00043768,10.6664759 L6.00043768,10.6664759 L8.00023568,8.66627386 L9.99959601,10.6664422 L9.99959601,10.6664422 L10.0736337,10.726932 C10.2566595,10.8477768 10.5053831,10.827636 10.6665095,10.6665095 C10.8506912,10.4823279 10.8506912,10.1837103 10.6665095,9.99952864 L10.6665095,9.99952864 L8.66674523,7.99976432 L10.6664759,6.00043767 L10.6664759,6.00043767 L10.7269381,5.92642616 C10.8477951,5.74338194 10.8276522,5.49463316 10.6665095,5.33349045 L10.6665095,5.33349045 Z" />
</svg>